<svg id="visual" viewBox="0 0 900 600" width="900" height="600" xmlns="http://www.w3.org/2000/svg" xmlns:xlink="http://www.w3.org/1999/xlink" version="1.1"><path d="M0 476L7.8 482.2C15.7 488.3 31.3 500.7 47.2 497.3C63 494 79 475 94.8 467.7C110.7 460.3 126.3 464.7 142 468.5C157.7 472.3 173.3 475.7 189.2 477.2C205 478.7 221 478.3 236.8 483.8C252.7 489.3 268.3 500.7 284.2 504.8C300 509 316 506 331.8 503C347.7 500 363.3 497 379 498.5C394.7 500 410.3 506 426.2 500.5C442 495 458 478 473.8 473C489.7 468 505.3 475 521 480.2C536.7 485.3 552.3 488.7 568.2 492C584 495.3 600 498.7 615.8 496.8C631.7 495 647.3 488 663.2 489.2C679 490.3 695 499.7 710.8 494.7C726.7 489.7 742.3 470.3 758 467C773.7 463.7 789.3 476.3 805.2 481.2C821 486 837 483 852.8 477.3C868.7 471.7 884.3 463.3 892.2 459.2L900 455L900 601L892.2 601C884.3 601 868.7 601 852.8 601C837 601 821 601 805.2 601C789.3 601 773.7 601 758 601C742.3 601 726.7 601 710.8 601C695 601 679 601 663.2 601C647.3 601 631.7 601 615.8 601C600 601 584 601 568.2 601C552.3 601 536.7 601 521 601C505.3 601 489.7 601 473.8 601C458 601 442 601 426.2 601C410.3 601 394.7 601 379 601C363.3 601 347.7 601 331.8 601C316 601 300 601 284.2 601C268.3 601 252.7 601 236.8 601C221 601 205 601 189.2 601C173.3 601 157.7 601 142 601C126.3 601 110.7 601 94.8 601C79 601 63 601 47.2 601C31.3 601 15.7 601 7.8 601L0 601Z" fill="#d1fff1"></path><path d="M0 526L7.8 522.8C15.7 519.7 31.3 513.3 47.2 511.8C63 510.3 79 513.7 94.8 511.3C110.7 509 126.3 501 142 502C157.7 503 173.3 513 189.2 513.7C205 514.3 221 505.7 236.8 505C252.7 504.3 268.3 511.7 284.2 515.7C300 519.7 316 520.3 331.8 518.3C347.7 516.3 363.3 511.7 379 511.3C394.7 511 410.3 515 426.2 511.2C442 507.3 458 495.7 473.8 493.3C489.7 491 505.3 498 521 501.3C536.7 504.7 552.3 504.3 568.2 507.7C584 511 600 518 615.8 519.2C631.7 520.3 647.3 515.7 663.2 508.7C679 501.7 695 492.3 710.8 493.7C726.7 495 742.3 507 758 514.5C773.7 522 789.3 525 805.2 525C821 525 837 522 852.8 520.5C868.7 519 884.3 519 892.2 519L900 519L900 601L892.2 601C884.3 601 868.7 601 852.8 601C837 601 821 601 805.2 601C789.3 601 773.7 601 758 601C742.3 601 726.7 601 710.8 601C695 601 679 601 663.2 601C647.3 601 631.7 601 615.8 601C600 601 584 601 568.2 601C552.3 601 536.7 601 521 601C505.3 601 489.7 601 473.8 601C458 601 442 601 426.2 601C410.3 601 394.7 601 379 601C363.3 601 347.7 601 331.8 601C316 601 300 601 284.2 601C268.3 601 252.7 601 236.8 601C221 601 205 601 189.2 601C173.3 601 157.7 601 142 601C126.3 601 110.7 601 94.8 601C79 601 63 601 47.2 601C31.3 601 15.7 601 7.8 601L0 601Z" fill="#c7ffe6"></path><path d="M0 533L7.8 534.5C15.7 536 31.3 539 47.2 541.3C63 543.7 79 545.3 94.8 542.5C110.7 539.7 126.3 532.3 142 532.7C157.7 533 173.3 541 189.2 541.8C205 542.7 221 536.3 236.8 531.3C252.7 526.3 268.3 522.7 284.2 523.3C300 524 316 529 331.8 535.2C347.7 541.3 363.3 548.7 379 551.7C394.7 554.7 410.3 553.3 426.2 551.8C442 550.3 458 548.7 473.8 547.7C489.7 546.7 505.3 546.3 521 543.8C536.7 541.3 552.3 536.7 568.2 536.8C584 537 600 542 615.8 545.7C631.7 549.3 647.3 551.7 663.2 549.8C679 548 695 542 710.8 542.7C726.7 543.3 742.3 550.7 758 550.3C773.7 550 789.3 542 805.2 539.3C821 536.7 837 539.3 852.8 537.2C868.7 535 884.3 528 892.2 524.5L900 521L900 601L892.2 601C884.3 601 868.7 601 852.8 601C837 601 821 601 805.2 601C789.3 601 773.7 601 758 601C742.3 601 726.7 601 710.8 601C695 601 679 601 663.2 601C647.3 601 631.7 601 615.8 601C600 601 584 601 568.2 601C552.3 601 536.7 601 521 601C505.3 601 489.7 601 473.8 601C458 601 442 601 426.2 601C410.3 601 394.7 601 379 601C363.3 601 347.7 601 331.8 601C316 601 300 601 284.2 601C268.3 601 252.7 601 236.8 601C221 601 205 601 189.2 601C173.3 601 157.7 601 142 601C126.3 601 110.7 601 94.8 601C79 601 63 601 47.2 601C31.3 601 15.7 601 7.8 601L0 601Z" fill="#baffda"></path><path d="M0 569L7.8 568.8C15.7 568.7 31.3 568.3 47.2 566C63 563.7 79 559.3 94.8 556.8C110.7 554.3 126.3 553.7 142 556.3C157.7 559 173.3 565 189.2 566.3C205 567.7 221 564.3 236.8 564.7C252.7 565 268.3 569 284.2 568.3C300 567.7 316 562.3 331.8 560.8C347.7 559.3 363.3 561.7 379 563.3C394.7 565 410.3 566 426.2 567.3C442 568.7 458 570.3 473.8 572.2C489.7 574 505.3 576 521 576.8C536.7 577.7 552.3 577.3 568.2 573.5C584 569.7 600 562.3 615.8 558C631.7 553.7 647.3 552.3 663.2 554.5C679 556.7 695 562.3 710.8 565.5C726.7 568.7 742.3 569.3 758 568.7C773.7 568 789.3 566 805.2 563.3C821 560.7 837 557.3 852.8 559.3C868.7 561.3 884.3 568.7 892.2 572.3L900 576L900 601L892.2 601C884.3 601 868.7 601 852.8 601C837 601 821 601 805.2 601C789.3 601 773.7 601 758 601C742.3 601 726.7 601 710.8 601C695 601 679 601 663.2 601C647.3 601 631.7 601 615.8 601C600 601 584 601 568.2 601C552.3 601 536.7 601 521 601C505.3 601 489.7 601 473.8 601C458 601 442 601 426.2 601C410.3 601 394.7 601 379 601C363.3 601 347.7 601 331.8 601C316 601 300 601 284.2 601C268.3 601 252.7 601 236.8 601C221 601 205 601 189.2 601C173.3 601 157.7 601 142 601C126.3 601 110.7 601 94.8 601C79 601 63 601 47.2 601C31.3 601 15.7 601 7.8 601L0 601Z" fill="#a8ffd0"></path></svg>